<?xml version="1.0" encoding="iso-8859-1"?>
<!-- Generator: Adobe Illustrator 23.0.3, SVG Export Plug-In . SVG Version: 6.00 Build 0)  -->
<svg version="1.1" xmlns="http://www.w3.org/2000/svg" xmlns:xlink="http://www.w3.org/1999/xlink" x="0px" y="0px"
	 viewBox="0 0 32 32" style="enable-background:new 0 0 32 32;" xml:space="preserve">
<g id="filled">
</g>
<g id="outlined">
</g>
<g id="rounded">
</g>
<g id="two_x5F_tone">
</g>
<g id="sharp">
</g>
<g id="win10">
	<rect x="21" y="4" width="4" height="4"/>
	<path d="M25,22.754c0,1.35-0.317,5.799-4.242,7.149L17,28c2.806-1.224,4-3.2,4-5.246C21,19.926,21,11,21,11l4,0.002
		C25,11.002,25,19.715,25,22.754z"/>
	<path d="M14,4v6.302c-0.469-0.191-1.48-0.228-1.978-0.228C8.273,10.074,5,12.011,5,17c0,5.969,4.504,6.997,7.65,6.997
		c1.242,0,4-0.122,5.35-0.513V4H14z M12.609,20.666C10.84,20.666,9,19.863,9,17s1.84-3.469,3.609-3.469
		c0.432,0,0.918,0.081,1.391,0.189v6.757C13.528,20.584,13.042,20.666,12.609,20.666z"/>
</g>
<g id="ios_x5F_out">
</g>
<g id="ios_x5F_filled">
</g>
<g id="color">
</g>
</svg>